<svg width="80" height="81" viewBox="0 0 80 81" fill="none" xmlns="http://www.w3.org/2000/svg">
<path d="M40 0.5C17.9427 0.5 0 18.4444 0 40.5C0 62.5556 17.9427 80.5 40 80.5C62.0573 80.5 80 62.5556 80 40.5C80 18.4444 62.0573 0.5 40 0.5ZM55.9017 41.9014L32.5684 56.9014C32.295 57.0788 31.9792 57.1667 31.6667 57.1667C31.3933 57.1667 31.1166 57.0983 30.8692 56.9633C30.332 56.6703 30 56.1103 30 55.5V25.5C30 24.8897 30.332 24.3297 30.8692 24.0367C31.3966 23.747 32.0573 23.7648 32.5684 24.0986L55.9017 39.0986C56.377 39.4045 56.6667 39.9336 56.6667 40.5C56.6667 41.0664 56.377 41.5953 55.9017 41.9014Z" fill="white"/>
</svg>
